<svg xmlns="http://www.w3.org/2000/svg" width="288.1367492675781" height="284.20367431640625" viewBox="-51.064186096191406 -41.81727600097656 288.1367492675781 284.20367431640625"><title>Neo4j Graph Visualization</title><desc>Created using Neo4j (http://www.neo4j.com/)</desc><g class="layer relationships"><g class="relationship" transform="translate(152.63947147621505 205.42624815348069) rotate(238.63063144071907)"><path class="outline" fill="#A5ABB6" stroke="none" d="M 25 0.5 L 37.45230070527385 0.5 L 37.45230070527385 -0.5 L 25 -0.5 Z M 73.22573820527384 0.5 L 85.6780389105477 0.5 L 85.6780389105477 3.5 L 92.6780389105477 0 L 85.6780389105477 -3.5 L 85.6780389105477 -0.5 L 73.22573820527384 -0.5 Z"/><text text-anchor="middle" pointer-events="none" font-size="8px" fill="#000000" x="55.33901945527385" y="3" transform="rotate(180 55.33901945527385 0)" font-family="sans-serif">WROTE</text></g><g class="relationship" transform="translate(208.072569300583 119.81469562625054) rotate(187.25988234296176)"><path class="outline" fill="#A5ABB6" stroke="none" d="M 25 0.5 L 32.53566601000107 0.5 L 32.53566601000107 -0.5 L 25 -0.5 Z M 78.09816601000108 0.5 L 85.63383202000215 0.5 L 85.63383202000215 3.5 L 92.63383202000215 0 L 85.63383202000215 -3.5 L 85.63383202000215 -0.5 L 78.09816601000108 -0.5 Z"/><text text-anchor="middle" pointer-events="none" font-size="8px" fill="#000000" x="55.31691601000107" y="3" transform="rotate(180 55.31691601000107 0)" font-family="sans-serif">ACTED_IN</text></g><g class="relationship" transform="translate(180.82767129585616 29.289289219095927) rotate(499.772963058428)"><path class="outline" fill="#A5ABB6" stroke="none" d="M 25 0.5 L 32.29562967560838 0.5 L 32.29562967560838 -0.5 L 25 -0.5 Z M 77.85812967560838 0.5 L 85.15375935121676 0.5 L 85.15375935121676 3.5 L 92.15375935121676 0 L 85.15375935121676 -3.5 L 85.15375935121676 -0.5 L 77.85812967560838 -0.5 Z"/><text text-anchor="middle" pointer-events="none" font-size="8px" fill="#000000" x="55.07687967560838" y="3" transform="rotate(180 55.07687967560838 0)" font-family="sans-serif">ACTED_IN</text></g><g class="relationship" transform="translate(96.1265787274379 -12.817277648389936) rotate(452.30718712243066)"><path class="outline" fill="#A5ABB6" stroke="none" d="M 25 0.5 L 31.98574875769566 0.5 L 31.98574875769566 -0.5 L 25 -0.5 Z M 78.87637375769566 0.5 L 85.86212251539132 0.5 L 85.86212251539132 3.5 L 92.86212251539132 0 L 85.86212251539132 -3.5 L 85.86212251539132 -0.5 L 78.87637375769566 -0.5 Z"/><text text-anchor="middle" pointer-events="none" font-size="8px" fill="#000000" x="55.43106125769566" y="3" transform="rotate(180 55.43106125769566 0)" font-family="sans-serif">DIRECTED</text></g><g class="relationship" transform="translate(0.7134080938745124 30.76185655678431) rotate(399.2910056971186)"><path class="outline" fill="#A5ABB6" stroke="none" d="M 25 0.5 L 37.18915493544966 0.5 L 37.18915493544966 -0.5 L 25 -0.5 Z M 72.96259243544966 0.5 L 85.15174737089932 0.5 L 85.15174737089932 3.5 L 92.15174737089932 0 L 85.15174737089932 -3.5 L 85.15174737089932 -0.5 L 72.96259243544966 -0.5 Z"/><text text-anchor="middle" pointer-events="none" font-size="8px" fill="#000000" x="55.07587368544966" y="3" font-family="sans-serif">WROTE</text></g><g class="relationship" transform="translate(-22.06418752023525 133.96563822990942) rotate(345.6529080315029)"><path class="outline" fill="#A5ABB6" stroke="none" d="M 25 0.5 L 37.162271871570404 0.5 L 37.162271871570404 -0.5 L 25 -0.5 Z M 72.9357093715704 0.5 L 85.09798124314081 0.5 L 85.09798124314081 3.5 L 92.09798124314081 0 L 85.09798124314081 -3.5 L 85.09798124314081 -0.5 L 72.9357093715704 -0.5 Z"/><text text-anchor="middle" pointer-events="none" font-size="8px" fill="#000000" x="55.048990621570404" y="3" font-family="sans-serif">WROTE</text></g><g class="relationship" transform="translate(48.312718086456464 213.38639400903935) rotate(291.66199756166634)"><path class="outline" fill="#A5ABB6" stroke="none" d="M 25 0.5 L 36.95183639727925 0.5 L 36.95183639727925 -0.5 L 25 -0.5 Z M 72.72527389727925 0.5 L 84.6771102945585 0.5 L 84.6771102945585 3.5 L 91.6771102945585 0 L 84.6771102945585 -3.5 L 84.6771102945585 -0.5 L 72.72527389727925 -0.5 Z"/><text text-anchor="middle" pointer-events="none" font-size="8px" fill="#000000" x="54.83855514727925" y="3" font-family="sans-serif">WROTE</text></g></g><g class="layer nodes"><g class="node" transform="translate(91.38178792600944,104.94930031023037)"><circle class="outline" cx="0" cy="0" r="25" fill="#57C7E3" stroke="#23b3d7" stroke-width="2px"/><text text-anchor="middle" pointer-events="none" font-family="sans-serif" dy="1.5625" font-size="25" fill="#2A2C34"/><text text-anchor="middle" pointer-events="none" font-family="sans-serif" dy="1.5625" font-size="25" fill="#2A2C34"/><text text-anchor="middle" pointer-events="none" font-family="sans-serif" dy="1.5625" font-size="25" fill="#2A2C34"/><text text-anchor="middle" pointer-events="none" x="0" y="-5" font-size="10px" fill="#2A2C34" font-family="sans-serif"> Captain</text><text text-anchor="middle" pointer-events="none" x="0" y="5" font-size="10px" fill="#2A2C34" font-family="sans-serif"> America:</text><text text-anchor="middle" pointer-events="none" x="0" y="15" font-size="10px" fill="#2A2C34" font-family="sans-serif"> The Fi…</text></g><g class="node" transform="translate(152.63947147621505,205.42624815348069)"><circle class="outline" cx="0" cy="0" r="25" fill="#F79767" stroke="#f36924" stroke-width="2px"/><text text-anchor="middle" pointer-events="none" font-family="sans-serif" dy="1.5625" font-size="25" fill="#FFFFFF"/><text text-anchor="middle" pointer-events="none" font-family="sans-serif" dy="1.5625" font-size="25" fill="#FFFFFF"/><text text-anchor="middle" pointer-events="none" x="0" y="0" font-size="10px" fill="#FFFFFF" font-family="sans-serif"> Stephen</text><text text-anchor="middle" pointer-events="none" x="0" y="10" font-size="10px" fill="#FFFFFF" font-family="sans-serif"> McFeely</text></g><g class="node" transform="translate(208.072569300583,119.81469562625054)"><circle class="outline" cx="0" cy="0" r="25" fill="#F79767" stroke="#f36924" stroke-width="2px"/><text text-anchor="middle" pointer-events="none" font-family="sans-serif" dy="1.5625" font-size="25" fill="#FFFFFF"/><text text-anchor="middle" pointer-events="none" font-family="sans-serif" dy="1.5625" font-size="25" fill="#FFFFFF"/><text text-anchor="middle" pointer-events="none" x="0" y="0" font-size="10px" fill="#FFFFFF" font-family="sans-serif"> Hayley</text><text text-anchor="middle" pointer-events="none" x="0" y="10" font-size="10px" fill="#FFFFFF" font-family="sans-serif"> Atwell</text></g><g class="node" transform="translate(180.82767129585616,29.289289219095927)"><circle class="outline" cx="0" cy="0" r="25" fill="#F79767" stroke="#f36924" stroke-width="2px"/><text text-anchor="middle" pointer-events="none" font-family="sans-serif" dy="1.5625" font-size="25" fill="#FFFFFF"/><text text-anchor="middle" pointer-events="none" font-family="sans-serif" dy="1.5625" font-size="25" fill="#FFFFFF"/><text text-anchor="middle" pointer-events="none" x="0" y="0" font-size="10px" fill="#FFFFFF" font-family="sans-serif"> Chris</text><text text-anchor="middle" pointer-events="none" x="0" y="10" font-size="10px" fill="#FFFFFF" font-family="sans-serif"> Evans</text></g><g class="node" transform="translate(96.1265787274379,-12.817277648389936)"><circle class="outline" cx="0" cy="0" r="25" fill="#F79767" stroke="#f36924" stroke-width="2px"/><text text-anchor="middle" pointer-events="none" font-family="sans-serif" dy="1.5625" font-size="25" fill="#FFFFFF"/><text text-anchor="middle" pointer-events="none" font-family="sans-serif" dy="1.5625" font-size="25" fill="#FFFFFF"/><text text-anchor="middle" pointer-events="none" x="0" y="0" font-size="10px" fill="#FFFFFF" font-family="sans-serif"> Joe</text><text text-anchor="middle" pointer-events="none" x="0" y="10" font-size="10px" fill="#FFFFFF" font-family="sans-serif"> Johnston</text></g><g class="node" transform="translate(0.7134080938745124,30.76185655678431)"><circle class="outline" cx="0" cy="0" r="25" fill="#F79767" stroke="#f36924" stroke-width="2px"/><text text-anchor="middle" pointer-events="none" font-family="sans-serif" dy="1.5625" font-size="25" fill="#FFFFFF"/><text text-anchor="middle" pointer-events="none" x="0" y="5" font-size="10px" fill="#FFFFFF" font-family="sans-serif"> Christop…</text></g><g class="node" transform="translate(-22.06418752023525,133.96563822990942)"><circle class="outline" cx="0" cy="0" r="25" fill="#F79767" stroke="#f36924" stroke-width="2px"/><text text-anchor="middle" pointer-events="none" font-family="sans-serif" dy="1.5625" font-size="25" fill="#FFFFFF"/><text text-anchor="middle" pointer-events="none" font-family="sans-serif" dy="1.5625" font-size="25" fill="#FFFFFF"/><text text-anchor="middle" pointer-events="none" x="0" y="0" font-size="10px" fill="#FFFFFF" font-family="sans-serif"> Joe</text><text text-anchor="middle" pointer-events="none" x="0" y="10" font-size="10px" fill="#FFFFFF" font-family="sans-serif"> Simon</text></g><g class="node" transform="translate(48.312718086456464,213.38639400903935)"><circle class="outline" cx="0" cy="0" r="25" fill="#F79767" stroke="#f36924" stroke-width="2px"/><text text-anchor="middle" pointer-events="none" font-family="sans-serif" dy="1.5625" font-size="25" fill="#FFFFFF"/><text text-anchor="middle" pointer-events="none" x="0" y="5" font-size="10px" fill="#FFFFFF" font-family="sans-serif"> Jack Kirby</text></g></g></svg>