<svg xmlns="http://www.w3.org/2000/svg" width="162.8621063232422" height="244.35638427734375" viewBox="-2.2065773010253906 -21.352684020996094 162.8621063232422 244.35638427734375"><title>Neo4j Graph Visualization</title><desc>Created using Neo4j (http://www.neo4j.com/)</desc><g class="layer relationships"><g class="relationship" transform="translate(131.6555353741255 7.64731519011553) rotate(522.3662252016393)"><path class="outline" fill="#A5ABB6" stroke="none" d="M 21.40063509461097,12.933012701892217 L 21.90063509461097,12.06698729810778 A 60.00144245545067 60.00144245545067 0 0 0 23.498018693323488,12.957061551589092 L 23.02464111327445,13.837921169636665 A 61.00144245545067 61.00144245545067 0 0 1 21.40063509461097,12.933012701892217 Z M 77.4146657418214,15.514023686377492 L 76.9964246577992,14.605687627621734 A 60.00144245545067 60.00144245545067 0 0 0 78.64558287984784,13.81565997190621 L 77.30840369899556,11.1301522287978 L 85.13463081057618,11.143159840435633 L 80.42848845431755,17.396336962717427 L 79.09130927346527,14.710829219609014 A 61.00144245545067 61.00144245545067 0 0 1 77.4146657418214,15.514023686377492"/><text text-anchor="middle" pointer-events="none" font-size="8px" fill="#000000" x="50.037806808800056" y="23.576949231947843" transform="rotate(180 50.037806808800056 20.576949231947843)" font-family="sans-serif">PublicTrans…</text></g><g class="relationship" transform="translate(29.193506684042244 40.21667501716975) rotate(451.29014576356974)"><path class="outline" fill="#A5ABB6" stroke="none" d="M 25 0.5 L 40.13077532685031 0.5 L 40.13077532685031 -0.5 L 25 -0.5 Z M 59.46671282685031 0.5 L 74.59748815370062 0.5 L 74.59748815370062 3.5 L 81.59748815370062 0 L 74.59748815370062 -3.5 L 74.59748815370062 -0.5 L 59.46671282685031 -0.5 Z"/><text text-anchor="middle" pointer-events="none" font-size="8px" fill="#000000" x="49.79874407685031" y="3" transform="rotate(180 49.79874407685031 0)" font-family="sans-serif">trek</text></g><g class="relationship" transform="translate(26.793422810700427 146.78714033509576) rotate(386.1137996399359)"><path class="outline" fill="#A5ABB6" stroke="none" d="M 25 0.5 L 40.46826693073207 0.5 L 40.46826693073207 -0.5 L 25 -0.5 Z M 59.80420443073207 0.5 L 75.27247136146414 0.5 L 75.27247136146414 3.5 L 82.27247136146414 0 L 75.27247136146414 -3.5 L 75.27247136146414 -0.5 L 59.80420443073207 -0.5 Z"/><text text-anchor="middle" pointer-events="none" font-size="8px" fill="#000000" x="50.13623568073207" y="3" font-family="sans-serif">trek</text></g><g class="relationship" transform="translate(131.6555353741255 7.64731519011553) rotate(522.3662252016393)"><path class="outline" fill="#A5ABB6" stroke="none" d="M 25 0.5 L 40.58896225157312 0.5 L 40.58896225157312 -0.5 L 25 -0.5 Z M 59.92489975157312 0.5 L 75.51386200314624 0.5 L 75.51386200314624 3.5 L 82.51386200314624 0 L 75.51386200314624 -3.5 L 75.51386200314624 -0.5 L 59.92489975157312 -0.5 Z"/><text text-anchor="middle" pointer-events="none" font-size="8px" fill="#000000" x="50.25693100157312" y="3" transform="rotate(180 50.25693100157312 0)" font-family="sans-serif">trek</text></g><g class="relationship" transform="translate(131.6555353741255 7.64731519011553) rotate(522.3662252016393)"><path class="outline" fill="#A5ABB6" stroke="none" d="M 21.40063509461097,-12.933012701892217 L 21.90063509461097,-12.06698729810778 A 60.00144245545067 60.00144245545067 0 0 1 39.2340477774662,-18.75327516450467 L 39.02293104382642,-19.73073602038447 A 61.00144245545067 61.00144245545067 0 0 0 21.40063509461097,-12.933012701892217 Z M 61.083886851795086,-20.410574351107293 L 60.93335712397488,-19.421968868094794 A 60.00144245545067 60.00144245545067 0 0 1 78.64558287984784,-13.81565997190621 L 77.30840369899556,-11.1301522287978 L 85.13463081057618,-11.143159840435633 L 80.42848845431755,-17.396336962717427 L 79.09130927346527,-14.710829219609014 A 61.00144245545067 61.00144245545067 0 0 0 61.083886851795086,-20.410574351107293"/><text text-anchor="middle" pointer-events="none" font-size="8px" fill="#000000" x="50.03780680880005" y="-17.576949231947843" transform="rotate(180 50.03780680880005 -20.576949231947843)" font-family="sans-serif">road</text></g></g><g class="layer nodes"><g class="node" transform="translate(131.6555353741255,7.64731519011553)"><circle class="outline" cx="0" cy="0" r="25" fill="#F16667" stroke="#eb2728" stroke-width="2px"/><text text-anchor="middle" pointer-events="none" font-family="sans-serif" dy="1.5625" font-size="25" fill="#FFFFFF"/><text text-anchor="middle" pointer-events="none" x="0" y="5" font-size="10px" fill="#FFFFFF" font-family="sans-serif"> Darjeeling</text></g><g class="node" transform="translate(123.11569093808035,194.00370284014556)"><circle class="outline" cx="0" cy="0" r="25" fill="#D9C8AE" stroke="#c0a378" stroke-width="2px"/><text text-anchor="middle" pointer-events="none" font-family="sans-serif" dy="1.5625" font-size="25" fill="#2A2C34"/><text text-anchor="middle" pointer-events="none" x="0" y="5" font-size="10px" fill="#2A2C34" font-family="sans-serif"> Sandak…</text></g><g class="node" transform="translate(29.193506684042244,40.21667501716975)"><circle class="outline" cx="0" cy="0" r="25" fill="#F16667" stroke="#eb2728" stroke-width="2px"/><text text-anchor="middle" pointer-events="none" font-family="sans-serif" dy="1.5625" font-size="25" fill="#FFFFFF"/><text text-anchor="middle" pointer-events="none" x="0" y="5" font-size="10px" fill="#FFFFFF" font-family="sans-serif"> Rimbik</text></g><g class="node" transform="translate(26.793422810700427,146.78714033509576)"><circle class="outline" cx="0" cy="0" r="25" fill="#8DCC93" stroke="#5db665" stroke-width="2px"/><text text-anchor="middle" pointer-events="none" font-family="sans-serif" dy="1.5625" font-size="25" fill="#2A2C34"/><text text-anchor="middle" pointer-events="none" x="0" y="5" font-size="10px" fill="#2A2C34" font-family="sans-serif"> BhikeBh…</text></g></g></svg>